<mxfile host="app.diagrams.net" modified="2021-04-09T16:24:07.352Z" agent="5.0 (Macintosh)" etag="hMStG8-prRMRetk3SuhK" version="14.5.0" type="github">
  <diagram id="Q6E1DNBksB6A1EtsWQso" name="Page-1">
    <mxGraphModel dx="1495" dy="1178" grid="1" gridSize="10" guides="1" tooltips="1" connect="1" arrows="1" fold="1" page="1" pageScale="1" pageWidth="850" pageHeight="1100" math="0" shadow="0">
      <root>
        <mxCell id="0" />
        <mxCell id="1" parent="0" />
        <mxCell id="4_w-XYMNNoLixTnXmscD-1" value="" style="shape=umlLifeline;participant=umlActor;perimeter=lifelinePerimeter;whiteSpace=wrap;html=1;container=1;collapsible=0;recursiveResize=0;verticalAlign=top;spacingTop=36;outlineConnect=0;" parent="1" vertex="1">
          <mxGeometry x="60" y="200" width="20" height="300" as="geometry" />
        </mxCell>
        <mxCell id="4_w-XYMNNoLixTnXmscD-6" value="Lifeline2" style="shape=umlLifeline;perimeter=lifelinePerimeter;whiteSpace=wrap;html=1;container=1;collapsible=0;recursiveResize=0;outlineConnect=0;" parent="1" vertex="1">
          <mxGeometry x="610" y="140" width="100" height="300" as="geometry" />
        </mxCell>
        <mxCell id="4_w-XYMNNoLixTnXmscD-7" value="" style="html=1;points=[];perimeter=orthogonalPerimeter;fillColor=#808080;" parent="4_w-XYMNNoLixTnXmscD-6" vertex="1">
          <mxGeometry x="45" y="90" width="10" height="120" as="geometry" />
        </mxCell>
        <mxCell id="4_w-XYMNNoLixTnXmscD-8" value="Jira" style="shape=umlLifeline;perimeter=lifelinePerimeter;whiteSpace=wrap;html=1;container=1;collapsible=0;recursiveResize=0;outlineConnect=0;" parent="1" vertex="1">
          <mxGeometry x="170" y="200" width="100" height="300" as="geometry" />
        </mxCell>
        <mxCell id="4_w-XYMNNoLixTnXmscD-9" value="" style="html=1;points=[];perimeter=orthogonalPerimeter;" parent="4_w-XYMNNoLixTnXmscD-8" vertex="1">
          <mxGeometry x="45" y="90" width="10" height="120" as="geometry" />
        </mxCell>
        <mxCell id="T1SzNSe_s7wtdCuMpO71-11" value="return" style="html=1;verticalAlign=bottom;endArrow=open;dashed=1;endSize=8;exitX=1.1;exitY=1;exitDx=0;exitDy=0;exitPerimeter=0;" edge="1" source="4_w-XYMNNoLixTnXmscD-9" parent="1" target="4_w-XYMNNoLixTnXmscD-1">
          <mxGeometry relative="1" as="geometry">
            <mxPoint x="310" y="646" as="targetPoint" />
          </mxGeometry>
        </mxCell>
        <mxCell id="T1SzNSe_s7wtdCuMpO71-12" value="1. Create/Update Something" style="html=1;verticalAlign=bottom;endArrow=block;" edge="1" parent="1">
          <mxGeometry x="-0.06" relative="1" as="geometry">
            <mxPoint x="69.5" y="289.5" as="sourcePoint" />
            <mxPoint x="219.5" y="289.5" as="targetPoint" />
            <mxPoint as="offset" />
          </mxGeometry>
        </mxCell>
      </root>
    </mxGraphModel>
  </diagram>
</mxfile>
